<svg xmlns="http://www.w3.org/2000/svg" width="64" height="64" viewBox="0 0 64 64"><path d="M28.373 13.546c-.803-.758-2.068-.722-2.827.08-.758.804-.722 2.07.08 2.828L42.086 32l-16.46 15.546c-.8.758-.837 2.024-.08 2.827.394.417.924.627 1.455.627.5 0 .99-.18 1.38-.546l18-17c.4-.378.63-.904.63-1.454s-.22-1.076-.62-1.454l-18-17zM32 0C23.453 0 15.417 3.33 9.374 9.373 3.33 15.417 0 23.453 0 32s3.33 16.583 9.374 22.626C15.417 60.67 23.454 64 32 64s16.583-3.33 22.626-9.373C60.67 48.583 64 40.547 64 32s-3.33-16.583-9.374-22.626C48.583 3.33 40.546 0 32 0zm19.797 51.798C46.51 57.088 39.48 60 32 60s-14.51-2.913-19.798-8.202C6.912 46.51 4 39.478 4 32s2.913-14.51 8.203-19.798C17.49 6.912 24.52 4 32 4s14.51 2.913 19.798 8.202C57.088 17.49 60 24.522 60 32s-2.913 14.51-8.203 19.798z"/></svg>