<svg xmlns="http://www.w3.org/2000/svg" width="64" height="64" viewBox="0 0 64 64"><path d="M32 0C23.452 0 15.416 3.33 9.373 9.374 3.328 15.417 0 23.454 0 32s3.328 16.583 9.373 22.626C15.416 60.67 23.453 64 32 64c8.547 0 16.583-3.33 22.627-9.374C60.672 48.582 64 40.546 64 32s-3.328-16.583-9.373-22.626C48.583 3.33 40.547 0 32 0zm19.8 51.798C46.51 57.088 39.48 60 32 60s-14.51-2.913-19.8-8.203C6.913 46.51 4 39.48 4 32s2.912-14.51 8.2-19.798C17.49 6.912 24.52 4 32 4s14.51 2.913 19.8 8.203C57.087 17.49 60 24.523 60 32s-2.912 14.51-8.2 19.798zm-9.943-20.54l-8-20C33.554 10.498 32.817 10 32 10s-1.554.498-1.857 1.257l-8 20c-.192.482-.182 1.01.006 1.483l-.01.002 8 20c.3.76 1.04 1.258 1.86 1.258s1.55-.498 1.85-1.257l8-20-.01-.002c.19-.47.2-1 .01-1.48zM32 17.384L37.046 30H26.954L32 17.385zm0 29.23L26.954 34h10.092L32 46.615z"/></svg>