<svg xmlns="http://www.w3.org/2000/svg" width="64" height="64" viewBox="0 0 64 64"><path d="M17.586 46.414c.39.39.902.586 1.414.586s1.023-.195 1.414-.586L32 34.828l11.586 11.586c.39.39.902.586 1.414.586s1.023-.195 1.414-.586c.78-.78.78-2.047 0-2.828L34.828 32l11.586-11.586c.78-.78.78-2.047 0-2.828-.78-.78-2.047-.78-2.828 0L32 29.172 20.414 17.586c-.78-.78-2.047-.78-2.828 0-.78.78-.78 2.047 0 2.828L29.172 32 17.586 43.586c-.78.78-.78 2.047 0 2.828zM32 64c8.547 0 16.583-3.33 22.626-9.373C60.67 48.583 64 40.547 64 32s-3.33-16.583-9.374-22.626C48.583 3.33 40.546 0 32 0S15.417 3.33 9.374 9.373C3.33 15.417 0 23.453 0 32s3.33 16.583 9.374 22.626C15.417 60.67 23.454 64 32 64zM12.202 12.202C17.49 6.912 24.522 4 32 4s14.51 2.913 19.798 8.202C57.088 17.49 60 24.522 60 32s-2.913 14.51-8.202 19.798C46.51 57.088 39.478 60 32 60s-14.51-2.913-19.798-8.202C6.912 46.51 4 39.478 4 32s2.913-14.51 8.202-19.798z"/></svg>