<svg xmlns="http://www.w3.org/2000/svg" width="64" height="64" viewBox="0 0 64 64"><path d="M2 49h14v10c0 .78.455 1.49 1.164 1.817.268.123.552.183.836.183.47 0 .933-.165 1.302-.48L32.74 49H62c1.104 0 2-.896 2-2V5c0-1.104-.896-2-2-2H2C.896 3 0 3.896 0 5v42c0 1.104.896 2 2 2zM4 7h56v38H32c-.478 0-.94.17-1.302.48L20 54.65V47c0-1.104-.896-2-2-2H4V7zm19 21h7v7c0 1.104.896 2 2 2s2-.896 2-2v-7h7c1.104 0 2-.896 2-2s-.896-2-2-2h-7v-7c0-1.104-.896-2-2-2s-2 .896-2 2v7h-7c-1.104 0-2 .896-2 2s.896 2 2 2z"/></svg>