<svg xmlns="http://www.w3.org/2000/svg" width="64" height="64" viewBox="0 0 64 64"><path d="M32 38c4.113 0 8-3.888 8-8 0-1.104-.895-2-2-2s-2 .896-2 2c0 1.907-2.092 4-4 4s-4-2.093-4-4c0-1.104-.895-2-2-2s-2 .896-2 2c0 4.112 3.89 8 8 8zM22 22c.53 0 1.04-.21 1.42-.59.37-.37.58-.88.58-1.41 0-.53-.21-1.04-.58-1.41-.75-.75-2.09-.75-2.84 0-.37.37-.58.88-.58 1.41 0 .53.21 1.04.59 1.41.37.38.89.59 1.41.59zm20 0c.52 0 1.04-.21 1.41-.59.38-.37.59-.88.59-1.41 0-.53-.21-1.04-.59-1.41-.74-.75-2.08-.75-2.82 0-.38.37-.59.88-.59 1.41 0 .53.21 1.04.59 1.41.37.38.88.59 1.41.59zM0 47c0 1.104.896 2 2 2h14v10c0 .78.455 1.49 1.164 1.817.268.123.552.183.836.183.47 0 .933-.165 1.302-.48L32.74 49H62c1.104 0 2-.896 2-2V5c0-1.104-.896-2-2-2H2C.896 3 0 3.896 0 5v42zM4 7h56v38H32c-.478 0-.94.17-1.302.48L20 54.65V47c0-1.104-.896-2-2-2H4V7z"/></svg>