<svg xmlns="http://www.w3.org/2000/svg" width="32" height="32" viewBox="0 0 32 32"><path d="M16 .395c-8.836 0-16 7.163-16 16 0 7.07 4.585 13.067 10.942 15.182.8.148 1.094-.347 1.094-.77 0-.38-.015-1.642-.022-2.98-4.452.97-5.39-1.887-5.39-1.887-.73-1.85-1.777-2.34-1.777-2.34-1.452-.994.11-.974.11-.974 1.606.113 2.452 1.65 2.452 1.65 1.42 2.445 3.74 1.738 4.65 1.33.14-1.035.56-1.74 1.01-2.14-3.56-.405-7.29-1.778-7.29-7.908 0-1.747.62-3.174 1.65-4.295-.17-.403-.72-2.03.15-4.234 0 0 1.34-.43 4.4 1.64 1.28-.36 2.65-.54 4.01-.54 1.36 0 2.73.18 4.01.54 3.06-2.07 4.4-1.64 4.4-1.64.87 2.2.32 3.83.15 4.23 1.03 1.12 1.65 2.55 1.65 4.29 0 6.14-3.75 7.5-7.31 7.89.57.5 1.08 1.47 1.08 2.96 0 2.14-.02 3.87-.02 4.39 0 .43.29.93 1.1.77C27.42 29.46 32 23.46 32 16.4c0-8.837-7.164-16-16-16z"/></svg>