<svg xmlns="http://www.w3.org/2000/svg" width="64" height="64" viewBox="0 0 64 64"><path d="M62 60H4v-8h4c1.104 0 2-.896 2-2s-.896-2-2-2H4v-6c1.104 0 2-.896 2-2s-.896-2-2-2v-6h4c1.104 0 2-.896 2-2s-.896-2-2-2H4v-6c1.104 0 2-.896 2-2s-.896-2-2-2v-6h4c1.104 0 2-.896 2-2s-.896-2-2-2H4V2c0-1.104-.896-2-2-2S0 .896 0 2v58c0 2.206 1.794 4 4 4h58c1.104 0 2-.896 2-2s-.896-2-2-2zm-6-26c1.104 0 2-.896 2-2V22c0-.13-.014-.263-.04-.392l-.05-.173-.063-.2-.104-.195-.08-.148c-.147-.22-.336-.408-.556-.556l-.148-.08-.2-.104-.2-.062-.18-.052c-.12-.024-.25-.038-.38-.038H46c-1.104 0-2 .896-2 2s.896 2 2 2h5.172L32 43.172l-4.586-4.586c-.78-.78-2.047-.78-2.828 0l-10 10c-.78.78-.78 2.047 0 2.828.39.39.902.586 1.414.586s1.023-.195 1.414-.586L26 42.828l4.586 4.586c.78.78 2.047.78 2.828 0L54 26.828V32c0 1.104.896 2 2 2z"/></svg>