<svg xmlns="http://www.w3.org/2000/svg" width="64" height="64" viewBox="0 0 64 64"><path d="M62 60h-2V32c0-2.206-1.794-4-4-4h-6c-2.206 0-4 1.794-4 4v28h-2V12c0-2.206-1.794-4-4-4h-6c-2.206 0-4 1.794-4 4v48h-2V42c0-2.206-1.794-4-4-4h-6c-2.206 0-4 1.794-4 4v18H4v-8h4c1.104 0 2-.896 2-2s-.896-2-2-2H4v-6c1.104 0 2-.896 2-2s-.896-2-2-2v-6h4c1.104 0 2-.896 2-2s-.896-2-2-2H4v-6c1.104 0 2-.896 2-2s-.896-2-2-2v-6h4c1.104 0 2-.896 2-2s-.896-2-2-2H4V2c0-1.104-.896-2-2-2S0 .896 0 2v58c0 2.206 1.794 4 4 4h58c1.104 0 2-.896 2-2s-.896-2-2-2zM50 32h6v28h-6V32zM34 12h6v48h-6V12zM18 42h6v18h-6V42z"/></svg>