<svg xmlns="http://www.w3.org/2000/svg" width="64" height="64" viewBox="0 0 64 64"><path d="M48 3c-6.957 0-13.005 3.527-16 8.674C29.005 6.527 22.957 3 16 3 5.496 3 0 12.055 0 21c0 20.892 29.706 38.956 30.97 39.715.318.19.674.285 1.03.285s.712-.095 1.03-.285C34.293 59.955 64 41.892 64 21c0-8.945-5.496-18-16-18zM32 56.636C26.83 53.3 4 37.626 4 21 4 14.257 7.755 7 16 7c6.733 0 14 4.588 14 12 0 1.104.896 2 2 2s2-.896 2-2c0-7.412 7.267-12 14-12 8.245 0 12 7.257 12 14 0 16.605-22.834 32.3-28 35.636z"/></svg>