<svg xmlns="http://www.w3.org/2000/svg" width="64" height="64" viewBox="0 0 64 64"><path d="M32 0C14.355 0 0 14.355 0 32s14.355 32 32 32 32-14.355 32-32S49.645 0 32 0zm26.83 24H48c-.326 0-.63.085-.9.224-1.622-3.136-4.187-5.7-7.323-7.323.138-.27.223-.573.223-.9V5.17C49.016 7.865 56.136 14.985 58.83 24zm-10.325 4H59.71c.188 1.307.29 2.642.29 4s-.103 2.693-.29 4H48.505c.31-1.285.495-2.62.495-4s-.184-2.715-.495-4zM32 45c-7.168 0-13-5.832-13-13s5.832-13 13-13 13 5.832 13 13-5.832 13-13 13zm4-40.71v11.205c-1.285-.312-2.62-.495-4-.495s-2.715.183-4 .495V4.29c1.307-.187 2.642-.29 4-.29s2.693.103 4 .29zm-12 .88V16c0 .326.085.63.224.9-3.137 1.622-5.7 4.187-7.323 7.323-.27-.138-.573-.223-.9-.223H5.17C7.865 14.984 14.985 7.864 24 5.17zM4 32c0-1.358.103-2.693.29-4h11.205c-.31 1.285-.495 2.62-.495 4s.184 2.715.495 4H4.29C4.103 34.693 4 33.358 4 32zm1.17 8H16c.326 0 .63-.085.9-.224 1.622 3.136 4.187 5.7 7.323 7.323-.138.27-.223.573-.223.9v10.83C14.984 56.134 7.864 49.014 5.17 40zM28 59.71V48.505c1.285.312 2.62.495 4 .495s2.715-.183 4-.495V59.71c-1.307.187-2.642.29-4 .29s-2.693-.103-4-.29zm12-.88V48c0-.326-.085-.63-.224-.9 3.137-1.622 5.7-4.187 7.323-7.323.27.138.573.223.9.223h10.83C56.134 49.016 49.014 56.136 40 58.83z"/></svg>