<svg xmlns="http://www.w3.org/2000/svg" width="64" height="64" viewBox="0 0 64 64"><path d="M6 34v28c0 1.104.896 2 2 2h48c1.104 0 2-.896 2-2V34c0-1.104-.896-2-2-2H18V18c0-7.72 6.28-14 14-14s14 6.28 14 14v4c0 1.104.896 2 2 2s2-.896 2-2v-4c0-9.925-8.075-18-18-18S14 8.075 14 18v14H8c-1.104 0-2 .896-2 2zm4 2h44v24H10V36zm22 4c-3.31 0-6 2.69-6 6 0 2.606 1.674 4.824 4 5.65V54c0 1.104.896 2 2 2s2-.896 2-2v-2.35c2.326-.826 4-3.043 4-5.65 0-3.31-2.69-6-6-6zm0 8c-1.103 0-2-.897-2-2s.897-2 2-2 2 .897 2 2-.897 2-2 2z"/></svg>