<svg xmlns="http://www.w3.org/2000/svg" width="64" height="64" viewBox="0 0 64 64"><path d="M54 46H12V28.828l4.586 4.586c.39.39.902.586 1.414.586s1.023-.195 1.414-.586c.78-.78.78-2.047 0-2.828l-8-8c-.092-.092-.195-.176-.306-.25l-.148-.08-.195-.104-.2-.062-.173-.052c-.26-.05-.524-.05-.783 0l-.18.052-.2.062-.2.104-.15.08c-.11.074-.22.158-.31.25l-8 8c-.78.78-.78 2.047 0 2.828s2.04.78 2.83 0L8 28.828V48c0 1.104.896 2 2 2h44c1.104 0 2-.896 2-2s-.896-2-2-2zm6.586-15.414L56 35.172V16c0-1.104-.896-2-2-2H10c-1.104 0-2 .896-2 2s.896 2 2 2h42v17.172l-4.586-4.586c-.78-.78-2.047-.78-2.828 0s-.78 2.047 0 2.828l8 8c.092.092.195.176.306.25l.148.08.195.104.2.062.173.052c.13.024.26.038.392.038l.392-.04.173-.05.2-.063.195-.104.148-.08c.11-.074.214-.158.307-.25l8-8c.78-.78.78-2.047 0-2.828s-2.048-.78-2.83 0z"/></svg>