<svg xmlns="http://www.w3.org/2000/svg" width="64" height="64" viewBox="0 0 64 64"><path d="M32 0C23.453 0 15.417 3.327 9.374 9.372 3.33 15.417 0 23.452 0 32s3.33 16.583 9.373 22.627C15.417 60.672 23.453 64 32 64s16.583-3.328 22.627-9.373C60.67 48.583 64 40.547 64 32s-3.33-16.583-9.374-22.627C48.583 3.328 40.546 0 32 0zm19.8 51.8C46.51 57.087 39.48 60 32 60s-14.51-2.912-19.798-8.2C6.912 46.51 4 39.48 4 32s2.913-14.51 8.202-19.8C17.49 6.913 24.522 4 32 4c7.48 0 14.51 2.912 19.8 8.2S60 24.52 60 32s-2.912 14.51-8.2 19.8zm-9.564-21.372l-14-11c-.602-.473-1.42-.56-2.11-.227-.69.34-1.126 1.04-1.126 1.8v22c0 .77.437 1.47 1.125 1.8.278.14.577.2.875.2.44 0 .877-.14 1.236-.42l14-11c.482-.38.764-.96.764-1.57s-.282-1.19-.764-1.57zM29 38.885v-13.77L37.763 32 29 38.885z"/></svg>