<svg xmlns="http://www.w3.org/2000/svg" width="64" height="64" viewBox="0 0 64 64"><path d="M32 0C23.452 0 15.416 3.33 9.373 9.374 3.328 15.417 0 23.454 0 32s3.328 16.583 9.373 22.626C15.416 60.67 23.453 64 32 64c8.547 0 16.583-3.33 22.627-9.374C60.672 48.582 64 40.546 64 32s-3.328-16.583-9.373-22.626C48.583 3.33 40.547 0 32 0zm19.8 51.798C46.51 57.088 39.48 60 32 60s-14.51-2.913-19.8-8.203C6.913 46.51 4 39.48 4 32s2.912-14.51 8.2-19.798C17.49 6.912 24.52 4 32 4s14.51 2.913 19.8 8.203C57.087 17.49 60 24.523 60 32s-2.912 14.51-8.2 19.798zM50 30H34V14c0-1.104-.896-2-2-2s-2 .896-2 2v16H14c-1.104 0-2 .896-2 2s.896 2 2 2h16v16c0 1.104.896 2 2 2s2-.896 2-2V34h16c1.104 0 2-.896 2-2s-.896-2-2-2z"/></svg>