<svg xmlns="http://www.w3.org/2000/svg" width="64" height="64" viewBox="0 0 64 64"><path d="M32 42c8.673 0 16-8.7 16-19S40.673 4 32 4s-16 8.7-16 19 7.327 19 16 19zm0-34c6.505 0 12 6.87 12 15s-5.495 15-12 15-12-6.87-12-15S25.495 8 32 8zM4.103 45.367l-4 12c-.203.61-.1 1.28.275 1.802.375.52.98.83 1.622.83h60c.643 0 1.247-.31 1.622-.83.376-.525.48-1.195.275-1.806l-4-12c-.21-.626-.713-1.108-1.348-1.29l-14-4c-.486-.14-1-.09-1.448.134L32 45.764 20.895 40.21c-.448-.223-.962-.27-1.444-.133l-14 4c-.632.182-1.135.664-1.344 1.29zm15.7-1.23l11.303 5.652c.562.28 1.227.28 1.79 0L44.2 44.133l12.236 3.496 2.79 8.37H4.774l2.79-8.367L19.8 44.137zM62 6h-4V2c0-1.104-.896-2-2-2s-2 .896-2 2v4h-4c-1.104 0-2 .896-2 2s.896 2 2 2h4v4c0 1.104.896 2 2 2s2-.896 2-2v-4h4c1.104 0 2-.896 2-2s-.896-2-2-2z"/></svg>