<svg xmlns="http://www.w3.org/2000/svg" width="64" height="64" viewBox="0 0 64 64"><path d="M30 2c0 1.104.896 2 2 2 7.48 0 14.51 2.913 19.798 8.202C57.088 17.49 60 24.522 60 32c0 7.38-2.842 14.323-8 19.587V46c0-1.104-.896-2-2-2s-2 .896-2 2v12h12c1.104 0 2-.896 2-2s-.896-2-2-2h-4.776C60.884 48.032 64 40.257 64 32c0-8.547-3.33-16.583-9.374-22.627C48.583 3.33 40.546 0 32 0c-1.104 0-2 .896-2 2zM9.374 54.627C15.417 60.67 23.454 64 32 64c1.104 0 2-.896 2-2s-.896-2-2-2c-7.48 0-14.51-2.913-19.798-8.202C6.912 46.51 4 39.478 4 32c0-7.38 2.842-14.323 8-19.587V18c0 1.104.896 2 2 2s2-.896 2-2V6H4c-1.104 0-2 .896-2 2s.896 2 2 2h4.776C3.116 15.968 0 23.743 0 32c0 8.547 3.33 16.583 9.374 22.627z"/></svg>