<svg xmlns="http://www.w3.org/2000/svg" width="64" height="64" viewBox="0 0 64 64"><path d="M2 40h6.56l1.152 3.46-5.126 5.126c-.78.78-.78 2.047 0 2.828l8 8c.78.78 2.048.78 2.828 0l5.126-5.126L24 55.44V62c0 1.104.896 2 2 2h12c1.104 0 2-.896 2-2v-6.56l3.46-1.152 5.126 5.126c.78.78 2.048.78 2.828 0l8-8c.78-.78.78-2.047 0-2.828l-5.126-5.126L55.44 40H62c1.104 0 2-.896 2-2V26c0-1.104-.896-2-2-2h-6.56l-1.152-3.46 5.126-5.126c.78-.78.78-2.047 0-2.828l-8-8c-.78-.78-2.048-.78-2.828 0L43.46 9.712 40 8.56V2c0-1.104-.896-2-2-2H26c-1.104 0-2 .896-2 2v6.56l-3.46 1.15-5.126-5.126c-.78-.78-2.048-.78-2.828 0l-8 8c-.78.78-.78 2.047 0 2.828l5.126 5.126L8.56 24H2c-1.104 0-2 .896-2 2v12c0 1.104.896 2 2 2zm2-12h6c.86 0 1.625-.55 1.897-1.368l2-6c.24-.72.052-1.51-.483-2.046L8.83 14 14 8.83l4.586 4.584c.535.536 1.328.722 2.046.483l6-2C27.45 11.625 28 10.86 28 10V4h8v6c0 .86.55 1.625 1.368 1.897l6 2c.72.24 1.51.053 2.046-.483L50 8.83 55.17 14l-4.584 4.586c-.536.536-.723 1.328-.483 2.046l2 6C52.375 27.45 53.14 28 54 28h6v8h-6c-.86 0-1.625.55-1.897 1.368l-2 6c-.24.72-.052 1.51.483 2.046L55.17 50 50 55.17l-4.586-4.584c-.536-.536-1.328-.724-2.046-.483l-6 2C36.55 52.375 36 53.14 36 54v6h-8v-6c0-.86-.55-1.625-1.368-1.897l-6-2c-.717-.24-1.51-.052-2.046.483L14 55.17 8.83 50l4.584-4.586c.536-.536.723-1.328.483-2.046l-2-6C11.625 36.55 10.86 36 10 36H4v-8zm28 12c4.41 0 8-3.59 8-8s-3.59-8-8-8-8 3.59-8 8 3.59 8 8 8zm0-12c2.206 0 4 1.794 4 4s-1.794 4-4 4-4-1.794-4-4 1.794-4 4-4z"/></svg>