<svg xmlns="http://www.w3.org/2000/svg" width="64" height="64" viewBox="0 0 64 64"><path d="M12 54c3.863 0 7.297-1.843 9.493-4.688l16.622 6.125C38.815 60.27 42.975 64 48 64c5.514 0 10-4.486 10-10s-4.486-10-10-10c-4.568 0-8.422 3.083-9.613 7.274L23.392 45.75c.39-1.18.608-2.44.608-3.75 0-2.522-.786-4.862-2.12-6.795L40.354 24.12C42.867 26.52 46.26 28 50 28c7.72 0 14-6.28 14-14S57.72 0 50 0 36 6.28 36 14c0 2.53.685 4.9 1.863 6.95L18.996 32.27C17.023 30.848 14.61 30 12 30 5.383 30 0 35.383 0 42s5.383 12 12 12zm36-6c3.31 0 6 2.69 6 6s-2.69 6-6 6-6-2.69-6-6 2.69-6 6-6zm2-44c5.514 0 10 4.486 10 10s-4.486 10-10 10-10-4.486-10-10S44.486 4 50 4zM12 34c4.41 0 8 3.59 8 8s-3.59 8-8 8-8-3.59-8-8 3.59-8 8-8z"/></svg>