<svg xmlns="http://www.w3.org/2000/svg" width="64" height="64" viewBox="0 0 64 64"><path d="M62 0H2C.896 0 0 .896 0 2v60c0 1.104.896 2 2 2h60c1.104 0 2-.896 2-2V2c0-1.104-.896-2-2-2zm-2 60H4V4h56v56zM10 16h4v38c0 1.104.896 2 2 2s2-.896 2-2V16h4c1.104 0 2-.896 2-2s-.896-2-2-2h-4v-2c0-1.104-.896-2-2-2s-2 .896-2 2v2h-4c-1.104 0-2 .896-2 2s.896 2 2 2zm32 36h4v2c0 1.104.896 2 2 2s2-.896 2-2v-2h4c1.104 0 2-.896 2-2s-.896-2-2-2h-4V10c0-1.104-.896-2-2-2s-2 .896-2 2v38h-4c-1.104 0-2 .896-2 2s.896 2 2 2zM26 34h4v20c0 1.104.896 2 2 2s2-.896 2-2V34h4c1.104 0 2-.896 2-2s-.896-2-2-2h-4V10c0-1.104-.896-2-2-2s-2 .896-2 2v20h-4c-1.104 0-2 .896-2 2s.896 2 2 2z"/></svg>