<svg xmlns="http://www.w3.org/2000/svg" width="32" height="32" viewBox="0 0 32 32"><path d="M32 6.076c-1.177.522-2.443.875-3.77 1.034 1.354-.813 2.395-2.1 2.886-3.632-1.27.752-2.674 1.3-4.17 1.593C25.75 3.8 24.044 3 22.156 3 18.53 3 15.59 5.94 15.59 9.565c0 .515.06 1.016.17 1.496-5.453-.27-10.29-2.89-13.53-6.86-.565.97-.89 2.1-.89 3.3 0 2.28 1.16 4.29 2.92 5.47-1.074-.03-2.086-.33-2.972-.82v.08c0 3.18 2.262 5.83 5.265 6.44-.55.15-1.13.23-1.73.23-.422 0-.833-.04-1.234-.12.83 2.61 3.26 4.51 6.13 4.56-2.25 1.76-5.08 2.81-8.16 2.81-.53 0-1.05-.03-1.57-.09 2.9 1.87 6.35 2.95 10.06 2.95 12.07 0 18.68-10 18.68-18.68 0-.28-.01-.57-.02-.85 1.28-.92 2.39-2.08 3.27-3.4z"/></svg>