<svg xmlns="http://www.w3.org/2000/svg" width="64" height="64" viewBox="0 0 64 64"><path d="M32 60c1.105 0 2-.896 2-2V30.827l4.588 4.587c.39.39.902.586 1.414.586s1.024-.195 1.414-.586c.78-.78.78-2.047 0-2.828l-8-8c-.78-.78-2.048-.78-2.828 0l-8 8c-.78.78-.78 2.047 0 2.828.78.78 2.047.78 2.827 0L30 30.83V58c0 1.104.896 2 2 2zM2 44h22c1.104 0 2-.896 2-2s-.896-2-2-2H4V8h56v32H40c-1.104 0-2 .896-2 2s.896 2 2 2h22c1.104 0 2-.896 2-2V6c0-1.104-.896-2-2-2H2C.896 4 0 4.896 0 6v36c0 1.104.896 2 2 2z"/></svg>