<svg xmlns="http://www.w3.org/2000/svg"><symbol id="arrow_right" viewBox="0 0 64 64"><path d="M28.373 13.546c-.803-.758-2.068-.722-2.827.08-.758.804-.722 2.07.08 2.828L42.086 32l-16.46 15.546c-.8.758-.837 2.024-.08 2.827.394.417.924.627 1.455.627.5 0 .99-.18 1.38-.546l18-17c.4-.378.63-.904.63-1.454s-.22-1.076-.62-1.454l-18-17zM32 0C23.453 0 15.417 3.33 9.374 9.373 3.33 15.417 0 23.453 0 32s3.33 16.583 9.374 22.626C15.417 60.67 23.454 64 32 64s16.583-3.33 22.626-9.373C60.67 48.583 64 40.547 64 32s-3.33-16.583-9.374-22.626C48.583 3.33 40.546 0 32 0zm19.797 51.798C46.51 57.088 39.48 60 32 60s-14.51-2.913-19.798-8.202C6.912 46.51 4 39.478 4 32s2.913-14.51 8.203-19.798C17.49 6.912 24.52 4 32 4s14.51 2.913 19.798 8.202C57.088 17.49 60 24.522 60 32s-2.913 14.51-8.203 19.798z"/></symbol><symbol id="compass" viewBox="0 0 64 64"><path d="M32 0C23.452 0 15.416 3.33 9.373 9.374 3.328 15.417 0 23.454 0 32s3.328 16.583 9.373 22.626C15.416 60.67 23.453 64 32 64c8.547 0 16.583-3.33 22.627-9.374C60.672 48.582 64 40.546 64 32s-3.328-16.583-9.373-22.626C48.583 3.33 40.547 0 32 0zm19.8 51.798C46.51 57.088 39.48 60 32 60s-14.51-2.913-19.8-8.203C6.913 46.51 4 39.48 4 32s2.912-14.51 8.2-19.798C17.49 6.912 24.52 4 32 4s14.51 2.913 19.8 8.203C57.087 17.49 60 24.523 60 32s-2.912 14.51-8.2 19.798zm-9.943-20.54l-8-20C33.554 10.498 32.817 10 32 10s-1.554.498-1.857 1.257l-8 20c-.192.482-.182 1.01.006 1.483l-.01.002 8 20c.3.76 1.04 1.258 1.86 1.258s1.55-.498 1.85-1.257l8-20-.01-.002c.19-.47.2-1 .01-1.48zM32 17.384L37.046 30H26.954L32 17.385zm0 29.23L26.954 34h10.092L32 46.615z"/></symbol><symbol id="delete" viewBox="0 0 64 64"><path d="M17.586 46.414c.39.39.902.586 1.414.586s1.023-.195 1.414-.586L32 34.828l11.586 11.586c.39.39.902.586 1.414.586s1.023-.195 1.414-.586c.78-.78.78-2.047 0-2.828L34.828 32l11.586-11.586c.78-.78.78-2.047 0-2.828-.78-.78-2.047-.78-2.828 0L32 29.172 20.414 17.586c-.78-.78-2.047-.78-2.828 0-.78.78-.78 2.047 0 2.828L29.172 32 17.586 43.586c-.78.78-.78 2.047 0 2.828zM32 64c8.547 0 16.583-3.33 22.626-9.373C60.67 48.583 64 40.547 64 32s-3.33-16.583-9.374-22.626C48.583 3.33 40.546 0 32 0S15.417 3.33 9.374 9.373C3.33 15.417 0 23.453 0 32s3.33 16.583 9.374 22.626C15.417 60.67 23.454 64 32 64zM12.202 12.202C17.49 6.912 24.522 4 32 4s14.51 2.913 19.798 8.202C57.088 17.49 60 24.522 60 32s-2.913 14.51-8.202 19.798C46.51 57.088 39.478 60 32 60s-14.51-2.913-19.798-8.202C6.912 46.51 4 39.478 4 32s2.913-14.51 8.202-19.798z"/></symbol><symbol id="dialogue_add" viewBox="0 0 64 64"><path d="M2 49h14v10c0 .78.455 1.49 1.164 1.817.268.123.552.183.836.183.47 0 .933-.165 1.302-.48L32.74 49H62c1.104 0 2-.896 2-2V5c0-1.104-.896-2-2-2H2C.896 3 0 3.896 0 5v42c0 1.104.896 2 2 2zM4 7h56v38H32c-.478 0-.94.17-1.302.48L20 54.65V47c0-1.104-.896-2-2-2H4V7zm19 21h7v7c0 1.104.896 2 2 2s2-.896 2-2v-7h7c1.104 0 2-.896 2-2s-.896-2-2-2h-7v-7c0-1.104-.896-2-2-2s-2 .896-2 2v7h-7c-1.104 0-2 .896-2 2s.896 2 2 2z"/></symbol><symbol id="dialogue_happy" viewBox="0 0 64 64"><path d="M32 38c4.113 0 8-3.888 8-8 0-1.104-.895-2-2-2s-2 .896-2 2c0 1.907-2.092 4-4 4s-4-2.093-4-4c0-1.104-.895-2-2-2s-2 .896-2 2c0 4.112 3.89 8 8 8zM22 22c.53 0 1.04-.21 1.42-.59.37-.37.58-.88.58-1.41 0-.53-.21-1.04-.58-1.41-.75-.75-2.09-.75-2.84 0-.37.37-.58.88-.58 1.41 0 .53.21 1.04.59 1.41.37.38.89.59 1.41.59zm20 0c.52 0 1.04-.21 1.41-.59.38-.37.59-.88.59-1.41 0-.53-.21-1.04-.59-1.41-.74-.75-2.08-.75-2.82 0-.38.37-.59.88-.59 1.41 0 .53.21 1.04.59 1.41.37.38.88.59 1.41.59zM0 47c0 1.104.896 2 2 2h14v10c0 .78.455 1.49 1.164 1.817.268.123.552.183.836.183.47 0 .933-.165 1.302-.48L32.74 49H62c1.104 0 2-.896 2-2V5c0-1.104-.896-2-2-2H2C.896 3 0 3.896 0 5v42zM4 7h56v38H32c-.478 0-.94.17-1.302.48L20 54.65V47c0-1.104-.896-2-2-2H4V7z"/></symbol><symbol id="github" viewBox="0 0 32 32"><path d="M16 .395c-8.836 0-16 7.163-16 16 0 7.07 4.585 13.067 10.942 15.182.8.148 1.094-.347 1.094-.77 0-.38-.015-1.642-.022-2.98-4.452.97-5.39-1.887-5.39-1.887-.73-1.85-1.777-2.34-1.777-2.34-1.452-.994.11-.974.11-.974 1.606.113 2.452 1.65 2.452 1.65 1.42 2.445 3.74 1.738 4.65 1.33.14-1.035.56-1.74 1.01-2.14-3.56-.405-7.29-1.778-7.29-7.908 0-1.747.62-3.174 1.65-4.295-.17-.403-.72-2.03.15-4.234 0 0 1.34-.43 4.4 1.64 1.28-.36 2.65-.54 4.01-.54 1.36 0 2.73.18 4.01.54 3.06-2.07 4.4-1.64 4.4-1.64.87 2.2.32 3.83.15 4.23 1.03 1.12 1.65 2.55 1.65 4.29 0 6.14-3.75 7.5-7.31 7.89.57.5 1.08 1.47 1.08 2.96 0 2.14-.02 3.87-.02 4.39 0 .43.29.93 1.1.77C27.42 29.46 32 23.46 32 16.4c0-8.837-7.164-16-16-16z"/></symbol><symbol id="graph_rising" viewBox="0 0 64 64"><path d="M62 60H4v-8h4c1.104 0 2-.896 2-2s-.896-2-2-2H4v-6c1.104 0 2-.896 2-2s-.896-2-2-2v-6h4c1.104 0 2-.896 2-2s-.896-2-2-2H4v-6c1.104 0 2-.896 2-2s-.896-2-2-2v-6h4c1.104 0 2-.896 2-2s-.896-2-2-2H4V2c0-1.104-.896-2-2-2S0 .896 0 2v58c0 2.206 1.794 4 4 4h58c1.104 0 2-.896 2-2s-.896-2-2-2zm-6-26c1.104 0 2-.896 2-2V22c0-.13-.014-.263-.04-.392l-.05-.173-.063-.2-.104-.195-.08-.148c-.147-.22-.336-.408-.556-.556l-.148-.08-.2-.104-.2-.062-.18-.052c-.12-.024-.25-.038-.38-.038H46c-1.104 0-2 .896-2 2s.896 2 2 2h5.172L32 43.172l-4.586-4.586c-.78-.78-2.047-.78-2.828 0l-10 10c-.78.78-.78 2.047 0 2.828.39.39.902.586 1.414.586s1.023-.195 1.414-.586L26 42.828l4.586 4.586c.78.78 2.047.78 2.828 0L54 26.828V32c0 1.104.896 2 2 2z"/></symbol><symbol id="heart" viewBox="0 0 64 64"><path d="M48 3c-6.957 0-13.005 3.527-16 8.674C29.005 6.527 22.957 3 16 3 5.496 3 0 12.055 0 21c0 20.892 29.706 38.956 30.97 39.715.318.19.674.285 1.03.285s.712-.095 1.03-.285C34.293 59.955 64 41.892 64 21c0-8.945-5.496-18-16-18zM32 56.636C26.83 53.3 4 37.626 4 21 4 14.257 7.755 7 16 7c6.733 0 14 4.588 14 12 0 1.104.896 2 2 2s2-.896 2-2c0-7.412 7.267-12 14-12 8.245 0 12 7.257 12 14 0 16.605-22.834 32.3-28 35.636z"/></symbol><symbol id="home" viewBox="0 0 64 64"><path d="M40 64h12c1.104 0 2-.896 2-2V34h8c.81 0 1.538-.487 1.848-1.235.31-.747.14-1.607-.434-2.18l-30-30c-.78-.78-2.047-.78-2.828 0l-30 30c-.572.573-.743 1.433-.434 2.18C.462 33.513 1.192 34 2 34h8v28c0 1.104.896 2 2 2h12c1.104 0 2-.896 2-2V48h12v14c0 1.104.896 2 2 2zM24 44c-1.104 0-2 .896-2 2v14h-8V32c0-1.104-.896-2-2-2H6.828L32 4.83 57.172 30H52c-1.104 0-2 .896-2 2v28h-8V46c0-1.104-.896-2-2-2H24z"/></symbol><symbol id="life_buoy" viewBox="0 0 64 64"><path d="M32 0C14.355 0 0 14.355 0 32s14.355 32 32 32 32-14.355 32-32S49.645 0 32 0zm26.83 24H48c-.326 0-.63.085-.9.224-1.622-3.136-4.187-5.7-7.323-7.323.138-.27.223-.57.223-.9V5.17C49.016 7.865 56.136 14.985 58.83 24zm-10.325 4H59.71c.188 1.307.29 2.642.29 4s-.103 2.693-.29 4H48.505c.31-1.285.495-2.62.495-4s-.184-2.715-.495-4zM32 45c-7.168 0-13-5.832-13-13s5.832-13 13-13 13 5.832 13 13-5.832 13-13 13zm4-40.71v11.205c-1.285-.312-2.62-.495-4-.495s-2.715.183-4 .495V4.29c1.307-.187 2.642-.29 4-.29s2.693.103 4 .29zm-12 .88V16c0 .326.085.63.224.9-3.137 1.622-5.7 4.187-7.323 7.323-.27-.138-.57-.223-.9-.223H5.17C7.865 14.984 14.985 7.864 24 5.17zM4 32c0-1.358.103-2.693.29-4h11.205c-.31 1.285-.495 2.62-.495 4s.184 2.715.495 4H4.29C4.103 34.693 4 33.358 4 32zm1.17 8H16c.326 0 .63-.085.9-.224 1.622 3.136 4.187 5.7 7.323 7.323-.138.27-.223.57-.223.9v10.83C14.984 56.13 7.864 49.01 5.17 40zM28 59.71V48.505c1.285.312 2.62.495 4 .495s2.715-.183 4-.495V59.71c-1.307.187-2.642.29-4 .29s-2.693-.103-4-.29zm12-.88V48c0-.326-.085-.63-.224-.9 3.137-1.622 5.7-4.187 7.323-7.323.27.138.57.223.9.223h10.83c-2.7 9.016-9.82 16.136-18.83 18.83z"/></symbol><symbol id="profile_add" viewBox="0 0 64 64"><path d="M32 42c8.673 0 16-8.7 16-19S40.673 4 32 4s-16 8.7-16 19 7.327 19 16 19zm0-34c6.505 0 12 6.87 12 15s-5.495 15-12 15-12-6.87-12-15S25.495 8 32 8zM4.103 45.367l-4 12c-.203.61-.1 1.28.275 1.802.375.52.98.83 1.622.83h60c.643 0 1.247-.31 1.622-.83.376-.53.48-1.2.275-1.81l-4-12c-.21-.63-.713-1.11-1.348-1.29l-14-4c-.49-.14-1-.09-1.45.13L32 45.76l-11.105-5.55c-.448-.223-.962-.27-1.444-.133l-14 4c-.63.182-1.13.664-1.34 1.29zm15.7-1.23l11.303 5.652c.562.28 1.227.28 1.79 0L44.2 44.13l12.236 3.496 2.79 8.37H4.774l2.79-8.368 12.236-3.49zM62 6h-4V2c0-1.104-.896-2-2-2s-2 .896-2 2v4h-4c-1.104 0-2 .896-2 2s.896 2 2 2h4v4c0 1.104.896 2 2 2s2-.896 2-2v-4h4c1.104 0 2-.896 2-2s-.896-2-2-2z"/></symbol><symbol id="profile_remove" viewBox="0 0 64 64"><path d="M32 42c8.673 0 16-8.7 16-19S40.673 4 32 4s-16 8.7-16 19 7.327 19 16 19zm0-34c6.505 0 12 6.87 12 15s-5.495 15-12 15-12-6.87-12-15S25.495 8 32 8zM4.103 45.367l-4 12c-.203.61-.1 1.28.275 1.802.375.52.98.83 1.622.83h60c.643 0 1.247-.31 1.622-.83.376-.53.48-1.2.275-1.81l-4-12c-.21-.63-.713-1.11-1.348-1.29l-14-4c-.49-.14-1-.09-1.45.13L32 45.76l-11.105-5.55c-.448-.223-.962-.27-1.444-.133l-14 4c-.63.182-1.13.664-1.34 1.29zm15.7-1.23l11.303 5.652c.562.28 1.227.28 1.79 0L44.2 44.13l12.236 3.496 2.79 8.37H4.774l2.79-8.368 12.236-3.49zm28.783-28.723c.39.39.902.586 1.414.586s1.023-.195 1.414-.586L55 11.828l3.586 3.586c.39.39.902.586 1.414.586s1.023-.195 1.414-.586c.78-.78.78-2.047 0-2.828L57.828 9l3.586-3.586c.78-.78.78-2.047 0-2.828s-2.047-.78-2.828 0L55 6.172l-3.586-3.586c-.78-.78-2.047-.78-2.828 0s-.78 2.047 0 2.828L52.172 9l-3.586 3.586c-.78.78-.78 2.047 0 2.828z"/></symbol><symbol id="rotate" viewBox="0 0 64 64"><path d="M30 2c0 1.104.896 2 2 2 7.48 0 14.51 2.913 19.798 8.202C57.088 17.49 60 24.522 60 32c0 7.38-2.842 14.323-8 19.587V46c0-1.104-.896-2-2-2s-2 .896-2 2v12h12c1.104 0 2-.896 2-2s-.896-2-2-2h-4.776C60.884 48.032 64 40.257 64 32c0-8.547-3.33-16.583-9.374-22.627C48.583 3.33 40.546 0 32 0c-1.104 0-2 .896-2 2zM9.374 54.627C15.417 60.67 23.454 64 32 64c1.104 0 2-.896 2-2s-.896-2-2-2c-7.48 0-14.51-2.913-19.798-8.202C6.912 46.51 4 39.478 4 32c0-7.38 2.842-14.323 8-19.587V18c0 1.104.896 2 2 2s2-.896 2-2V6H4c-1.104 0-2 .896-2 2s.896 2 2 2h4.776C3.116 15.968 0 23.743 0 32c0 8.547 3.33 16.583 9.374 22.627z"/></symbol><symbol id="setting" viewBox="0 0 64 64"><path d="M2 40h6.56l1.152 3.46-5.126 5.126c-.78.78-.78 2.047 0 2.828l8 8c.78.78 2.048.78 2.828 0l5.126-5.126L24 55.44V62c0 1.104.896 2 2 2h12c1.104 0 2-.896 2-2v-6.56l3.46-1.152 5.126 5.126c.78.78 2.048.78 2.828 0l8-8c.78-.78.78-2.047 0-2.828l-5.126-5.126L55.44 40H62c1.104 0 2-.896 2-2V26c0-1.104-.896-2-2-2h-6.56l-1.152-3.46 5.126-5.126c.78-.78.78-2.047 0-2.828l-8-8c-.78-.78-2.048-.78-2.828 0L43.46 9.712 40 8.56V2c0-1.104-.896-2-2-2H26c-1.104 0-2 .896-2 2v6.56l-3.46 1.15-5.126-5.126c-.78-.78-2.048-.78-2.828 0l-8 8c-.78.78-.78 2.047 0 2.828l5.126 5.126L8.56 24H2c-1.104 0-2 .896-2 2v12c0 1.104.896 2 2 2zm2-12h6c.86 0 1.625-.55 1.897-1.368l2-6c.24-.72.052-1.51-.483-2.046L8.83 14 14 8.83l4.586 4.584c.535.536 1.328.722 2.046.483l6-2C27.45 11.625 28 10.86 28 10V4h8v6c0 .86.55 1.625 1.368 1.897l6 2c.72.24 1.51.053 2.046-.483L50 8.83 55.17 14l-4.584 4.586c-.536.536-.723 1.328-.483 2.046l2 6C52.375 27.45 53.14 28 54 28h6v8h-6c-.86 0-1.625.55-1.897 1.368l-2 6c-.24.72-.052 1.51.483 2.046L55.17 50 50 55.17l-4.586-4.584c-.536-.536-1.328-.724-2.046-.483l-6 2C36.55 52.375 36 53.14 36 54v6h-8v-6c0-.86-.55-1.625-1.368-1.897l-6-2c-.717-.24-1.51-.052-2.046.483L14 55.17 8.83 50l4.584-4.586c.536-.536.723-1.328.483-2.046l-2-6C11.625 36.55 10.86 36 10 36H4v-8zm28 12c4.41 0 8-3.59 8-8s-3.59-8-8-8-8 3.59-8 8 3.59 8 8 8zm0-12c2.206 0 4 1.794 4 4s-1.794 4-4 4-4-1.794-4-4 1.794-4 4-4z"/></symbol><symbol id="share" viewBox="0 0 64 64"><path d="M12 54c3.863 0 7.297-1.843 9.493-4.688l16.622 6.125C38.815 60.27 42.975 64 48 64c5.514 0 10-4.486 10-10s-4.486-10-10-10c-4.568 0-8.422 3.083-9.613 7.274L23.392 45.75c.39-1.18.608-2.44.608-3.75 0-2.522-.786-4.862-2.12-6.795L40.354 24.12C42.867 26.52 46.26 28 50 28c7.72 0 14-6.28 14-14S57.72 0 50 0 36 6.28 36 14c0 2.53.685 4.9 1.863 6.95L18.996 32.27C17.023 30.848 14.61 30 12 30 5.383 30 0 35.383 0 42s5.383 12 12 12zm36-6c3.31 0 6 2.69 6 6s-2.69 6-6 6-6-2.69-6-6 2.69-6 6-6zm2-44c5.514 0 10 4.486 10 10s-4.486 10-10 10-10-4.486-10-10S44.486 4 50 4zM12 34c4.41 0 8 3.59 8 8s-3.59 8-8 8-8-3.59-8-8 3.59-8 8-8z"/></symbol><symbol id="squares" viewBox="0 0 64 64"><path d="M2 28h24c1.104 0 2-.896 2-2V2c0-1.104-.896-2-2-2H2C.896 0 0 .896 0 2v24c0 1.104.896 2 2 2zM4 4h20v20H4V4zm60-2c0-1.104-.896-2-2-2H38c-1.104 0-2 .896-2 2v24c0 1.104.896 2 2 2h24c1.104 0 2-.896 2-2V2zm-4 22H40V4h20v20zM2 64h25c1.104 0 2-.896 2-2V37c0-1.104-.896-2-2-2H2c-1.104 0-2 .896-2 2v25c0 1.104.896 2 2 2zm2-25h21v21H4V39zm58-3H38c-1.104 0-2 .896-2 2v24c0 1.104.896 2 2 2h24c1.104 0 2-.896 2-2V38c0-1.104-.896-2-2-2zm-2 24H40V40h20v20z"/></symbol><symbol id="twitter" viewBox="0 0 32 32"><path d="M32 6.076c-1.177.522-2.443.875-3.77 1.034 1.354-.813 2.395-2.1 2.886-3.632-1.27.752-2.674 1.3-4.17 1.593C25.75 3.8 24.044 3 22.156 3 18.53 3 15.59 5.94 15.59 9.565c0 .515.06 1.016.17 1.496-5.453-.27-10.29-2.89-13.53-6.86-.565.97-.89 2.1-.89 3.3 0 2.28 1.16 4.29 2.92 5.47-1.074-.03-2.086-.33-2.972-.82v.08c0 3.18 2.262 5.83 5.265 6.44-.55.15-1.13.23-1.73.23-.422 0-.833-.04-1.234-.12.83 2.61 3.26 4.51 6.13 4.56-2.25 1.76-5.08 2.81-8.16 2.81-.53 0-1.05-.03-1.57-.09 2.9 1.87 6.35 2.95 10.06 2.95 12.07 0 18.68-10 18.68-18.68 0-.28-.01-.57-.02-.85 1.28-.92 2.39-2.08 3.27-3.4z"/></symbol><symbol id="upload" viewBox="0 0 64 64"><path d="M32 60c1.105 0 2-.896 2-2V30.827l4.588 4.587c.39.39.902.586 1.414.586s1.024-.195 1.414-.586c.78-.78.78-2.047 0-2.828l-8-8c-.78-.78-2.048-.78-2.828 0l-8 8c-.78.78-.78 2.047 0 2.828.78.78 2.047.78 2.827 0L30 30.83V58c0 1.104.896 2 2 2zM2 44h22c1.104 0 2-.896 2-2s-.896-2-2-2H4V8h56v32H40c-1.104 0-2 .896-2 2s.896 2 2 2h22c1.104 0 2-.896 2-2V6c0-1.104-.896-2-2-2H2C.896 4 0 4.896 0 6v36c0 1.104.896 2 2 2z"/></symbol></svg>