<svg xmlns="http://www.w3.org/2000/svg"><symbol id="compass" viewBox="0 0 64 64"><path d="M32 0C23.452 0 15.416 3.33 9.373 9.374 3.328 15.417 0 23.454 0 32s3.328 16.583 9.373 22.626C15.416 60.67 23.453 64 32 64c8.547 0 16.583-3.33 22.627-9.374C60.672 48.582 64 40.546 64 32s-3.328-16.583-9.373-22.626C48.583 3.33 40.547 0 32 0zm19.8 51.798C46.51 57.088 39.48 60 32 60s-14.51-2.913-19.8-8.203C6.913 46.51 4 39.48 4 32s2.912-14.51 8.2-19.798C17.49 6.912 24.52 4 32 4s14.51 2.913 19.8 8.203C57.087 17.49 60 24.523 60 32s-2.912 14.51-8.2 19.798zm-9.943-20.54l-8-20C33.554 10.498 32.817 10 32 10s-1.554.498-1.857 1.257l-8 20c-.192.482-.182 1.01.006 1.483l-.01.002 8 20c.3.76 1.04 1.258 1.86 1.258s1.55-.498 1.85-1.257l8-20-.01-.002c.19-.47.2-1 .01-1.48zM32 17.384L37.046 30H26.954L32 17.385zm0 29.23L26.954 34h10.092L32 46.615z"/></symbol><symbol id="delete" viewBox="0 0 64 64"><path d="M17.586 46.414c.39.39.902.586 1.414.586s1.023-.195 1.414-.586L32 34.828l11.586 11.586c.39.39.902.586 1.414.586s1.023-.195 1.414-.586c.78-.78.78-2.047 0-2.828L34.828 32l11.586-11.586c.78-.78.78-2.047 0-2.828-.78-.78-2.047-.78-2.828 0L32 29.172 20.414 17.586c-.78-.78-2.047-.78-2.828 0-.78.78-.78 2.047 0 2.828L29.172 32 17.586 43.586c-.78.78-.78 2.047 0 2.828zM32 64c8.547 0 16.583-3.33 22.626-9.373C60.67 48.583 64 40.547 64 32s-3.33-16.583-9.374-22.626C48.583 3.33 40.546 0 32 0S15.417 3.33 9.374 9.373C3.33 15.417 0 23.453 0 32s3.33 16.583 9.374 22.626C15.417 60.67 23.454 64 32 64zM12.202 12.202C17.49 6.912 24.522 4 32 4s14.51 2.913 19.798 8.202C57.088 17.49 60 24.522 60 32s-2.913 14.51-8.202 19.798C46.51 57.088 39.478 60 32 60s-14.51-2.913-19.798-8.202C6.912 46.51 4 39.478 4 32s2.913-14.51 8.202-19.798z"/></symbol><symbol id="flag" viewBox="0 0 64 64"><path d="M12 0c-1.104 0-2 .896-2 2v60c0 1.104.896 2 2 2s2-.896 2-2V32h38c.693 0 1.337-.36 1.7-.95.365-.588.398-1.325.09-1.945L48.235 18 53.79 6.895c.31-.62.275-1.356-.09-1.946C53.338 4.36 52.694 4 52 4H14V2c0-1.104-.896-2-2-2zm36.764 8l-4.553 9.105c-.28.563-.28 1.226 0 1.79L48.77 28H14V8h34.764z"/></symbol><symbol id="github" viewBox="0 0 1792 1792"><path d="M1664 896q0 251-146.5 451.5T1139 1625q-27 5-39.5-7t-12.5-30v-211q0-97-52-142 57-6 102.5-18t94-39 81-66.5 53-105T1386 856q0-121-79-206 37-91-8-204-28-9-81 11t-92 44l-38 24q-93-26-192-26t-192 26q-16-11-42.5-27T578 459.5 492 446q-44 113-7 204-79 85-79 206 0 85 20.5 150t52.5 105 80.5 67 94 39 102.5 18q-40 36-49 103-21 10-45 15t-57 5-65.5-21.5T484 1274q-19-32-48.5-52t-49.5-24l-20-3q-21 0-29 4.5t-5 11.5 9 14 13 12l7 5q22 10 43.5 38t31.5 51l10 23q13 38 44 61.5t67 30 69.5 7 55.5-3.5l23-4q0 38 .5 89t.5 54q0 18-13 30t-40 7q-232-77-378.5-277.5T128 896q0-209 103-385.5T510.5 231 896 128t385.5 103T1561 510.5 1664 896z"/></symbol><symbol id="graph_rising" viewBox="0 0 64 64"><path d="M62 60H4v-8h4c1.104 0 2-.896 2-2s-.896-2-2-2H4v-6c1.104 0 2-.896 2-2s-.896-2-2-2v-6h4c1.104 0 2-.896 2-2s-.896-2-2-2H4v-6c1.104 0 2-.896 2-2s-.896-2-2-2v-6h4c1.104 0 2-.896 2-2s-.896-2-2-2H4V2c0-1.104-.896-2-2-2S0 .896 0 2v58c0 2.206 1.794 4 4 4h58c1.104 0 2-.896 2-2s-.896-2-2-2zm-6-26c1.104 0 2-.896 2-2V22c0-.13-.014-.263-.04-.392l-.05-.173-.063-.2-.104-.195-.08-.148c-.147-.22-.336-.408-.556-.556l-.148-.08-.2-.104-.2-.062-.18-.052c-.12-.024-.25-.038-.38-.038H46c-1.104 0-2 .896-2 2s.896 2 2 2h5.172L32 43.172l-4.586-4.586c-.78-.78-2.047-.78-2.828 0l-10 10c-.78.78-.78 2.047 0 2.828.39.39.902.586 1.414.586s1.023-.195 1.414-.586L26 42.828l4.586 4.586c.78.78 2.047.78 2.828 0L54 26.828V32c0 1.104.896 2 2 2z"/></symbol><symbol id="heart" viewBox="0 0 64 64"><path d="M48 3c-6.957 0-13.005 3.527-16 8.674C29.005 6.527 22.957 3 16 3 5.496 3 0 12.055 0 21c0 20.892 29.706 38.956 30.97 39.715.318.19.674.285 1.03.285s.712-.095 1.03-.285C34.293 59.955 64 41.892 64 21c0-8.945-5.496-18-16-18zM32 56.636C26.83 53.3 4 37.626 4 21 4 14.257 7.755 7 16 7c6.733 0 14 4.588 14 12 0 1.104.896 2 2 2s2-.896 2-2c0-7.412 7.267-12 14-12 8.245 0 12 7.257 12 14 0 16.605-22.834 32.3-28 35.636z"/></symbol><symbol id="home" viewBox="0 0 64 64"><path d="M40 64h12c1.104 0 2-.896 2-2V34h8c.81 0 1.538-.487 1.848-1.235.31-.747.14-1.607-.434-2.18l-30-30c-.78-.78-2.047-.78-2.828 0l-30 30c-.572.573-.743 1.433-.434 2.18C.462 33.513 1.192 34 2 34h8v28c0 1.104.896 2 2 2h12c1.104 0 2-.896 2-2V48h12v14c0 1.104.896 2 2 2zM24 44c-1.104 0-2 .896-2 2v14h-8V32c0-1.104-.896-2-2-2H6.828L32 4.83 57.172 30H52c-1.104 0-2 .896-2 2v28h-8V46c0-1.104-.896-2-2-2H24z"/></symbol><symbol id="life_buoy" viewBox="0 0 64 64"><path d="M32 0C14.355 0 0 14.355 0 32s14.355 32 32 32 32-14.355 32-32S49.645 0 32 0zm26.83 24H48c-.326 0-.63.085-.9.224-1.622-3.136-4.187-5.7-7.323-7.323.138-.27.223-.57.223-.9V5.17C49.016 7.865 56.136 14.985 58.83 24zm-10.325 4H59.71c.188 1.307.29 2.642.29 4s-.103 2.693-.29 4H48.505c.31-1.285.495-2.62.495-4s-.184-2.715-.495-4zM32 45c-7.168 0-13-5.832-13-13s5.832-13 13-13 13 5.832 13 13-5.832 13-13 13zm4-40.71v11.205c-1.285-.312-2.62-.495-4-.495s-2.715.183-4 .495V4.29c1.307-.187 2.642-.29 4-.29s2.693.103 4 .29zm-12 .88V16c0 .326.085.63.224.9-3.137 1.622-5.7 4.187-7.323 7.323-.27-.138-.57-.223-.9-.223H5.17C7.865 14.984 14.985 7.864 24 5.17zM4 32c0-1.358.103-2.693.29-4h11.205c-.31 1.285-.495 2.62-.495 4s.184 2.715.495 4H4.29C4.103 34.693 4 33.358 4 32zm1.17 8H16c.326 0 .63-.085.9-.224 1.622 3.136 4.187 5.7 7.323 7.323-.138.27-.223.57-.223.9v10.83C14.984 56.13 7.864 49.01 5.17 40zM28 59.71V48.505c1.285.312 2.62.495 4 .495s2.715-.183 4-.495V59.71c-1.307.187-2.642.29-4 .29s-2.693-.103-4-.29zm12-.88V48c0-.326-.085-.63-.224-.9 3.137-1.622 5.7-4.187 7.323-7.323.27.138.57.223.9.223h10.83c-2.7 9.016-9.82 16.136-18.83 18.83z"/></symbol><symbol id="share" viewBox="0 0 64 64"><path d="M12 54c3.863 0 7.297-1.843 9.493-4.688l16.622 6.125C38.815 60.27 42.975 64 48 64c5.514 0 10-4.486 10-10s-4.486-10-10-10c-4.568 0-8.422 3.083-9.613 7.274L23.392 45.75c.39-1.18.608-2.44.608-3.75 0-2.522-.786-4.862-2.12-6.795L40.354 24.12C42.867 26.52 46.26 28 50 28c7.72 0 14-6.28 14-14S57.72 0 50 0 36 6.28 36 14c0 2.53.685 4.9 1.863 6.95L18.996 32.27C17.023 30.848 14.61 30 12 30 5.383 30 0 35.383 0 42s5.383 12 12 12zm36-6c3.31 0 6 2.69 6 6s-2.69 6-6 6-6-2.69-6-6 2.69-6 6-6zm2-44c5.514 0 10 4.486 10 10s-4.486 10-10 10-10-4.486-10-10S44.486 4 50 4zM12 34c4.41 0 8 3.59 8 8s-3.59 8-8 8-8-3.59-8-8 3.59-8 8-8z"/></symbol><symbol id="twitter" viewBox="0 0 1792 1792"><path d="M1684 408q-67 98-162 167 1 14 1 42 0 130-38 259.5T1369.5 1125 1185 1335.5t-258 146-323 54.5q-271 0-496-145 35 4 78 4 225 0 401-138-105-2-188-64.5T285 1033q33 5 61 5 43 0 85-11-112-23-185.5-111.5T172 710v-4q68 38 146 41-66-44-105-115t-39-154q0-88 44-163 121 149 294.5 238.5T884 653q-8-38-8-74 0-134 94.5-228.5T1199 256q140 0 236 102 109-21 205-78-37 115-142 178 93-10 186-50z"/></symbol><symbol id="upload" viewBox="0 0 64 64"><path d="M32 60c1.105 0 2-.896 2-2V30.827l4.588 4.587c.39.39.902.586 1.414.586s1.024-.195 1.414-.586c.78-.78.78-2.047 0-2.828l-8-8c-.78-.78-2.048-.78-2.828 0l-8 8c-.78.78-.78 2.047 0 2.828.78.78 2.047.78 2.827 0L30 30.83V58c0 1.104.896 2 2 2zM2 44h22c1.104 0 2-.896 2-2s-.896-2-2-2H4V8h56v32H40c-1.104 0-2 .896-2 2s.896 2 2 2h22c1.104 0 2-.896 2-2V6c0-1.104-.896-2-2-2H2C.896 4 0 4.896 0 6v36c0 1.104.896 2 2 2z"/></symbol><symbol id="weibo" viewBox="0 0 1792 1792"><path d="M675 1284q21-34 11-69t-45-50q-34-14-73-1t-60 46q-22 34-13 68.5t43 50.5 74.5 2.5T675 1284zm94-121q8-13 3.5-26.5T755 1118q-14-5-28.5.5T705 1137q-17 31 13 45 14 5 29-.5t22-18.5zm174 107q-45 102-158 150t-224 12q-107-34-147.5-126.5T420 1118q47-93 151.5-139T782 960q111 29 158.5 119.5T943 1270zm312-160q-9-96-89-170T957.5 831 683 810q-223 23-369.5 141.5T181 1216q9 96 89 170t208.5 109 274.5 21q223-23 369.5-141.5T1255 1110zm308 4q0 68-37 139.5t-109 137-168.5 117.5-226 83-270.5 31-275-33.5-240.5-93-171.5-151T0 1145q0-115 69.5-245T267 642q169-169 341.5-236t246.5 7q65 64 20 209-4 14-1 20t10 7 14.5-.5T912 645l6-2q139-59 246-59t153 61q45 63 0 178-2 13-4.5 20t4.5 12.5 12 7.5 17 6q57 18 103 47t80 81.5 34 116.5zm-74-624q42 47 54.5 108.5T1537 716q-8 23-29.5 34t-44.5 4q-23-8-34-29.5t-4-44.5q20-63-24-111t-107-35q-24 5-45-8t-25-37q-5-24 8-44.5t37-25.5q60-13 119 5.5t101 65.5zm181-163q87 96 112.5 222.5T1769 791q-9 27-34 40t-52 4-40-34-5-52q28-82 10-172t-80-158q-62-69-148-95.5t-173-8.5q-28 6-52-9.5t-30-43.5 9.5-51.5T1218 181q123-26 244 11.5T1670 327z"/></symbol></svg>